# Blender v2.91.0 OBJ File: 'finger.blend'
# www.blender.org
mtllib finger_1.mtl
o finger
v 0.010360 0.026508 0.000155
v 0.010449 0.005998 0.000147
v -0.010387 0.005956 0.000132
v -0.010387 0.005956 0.000132
v -0.010479 0.017638 0.018988
v -0.010401 0.026428 0.000167
v -0.010401 0.026428 0.000167
v -0.010479 0.017638 0.018988
v -0.010389 0.025490 0.019188
v 0.010449 0.005998 0.000147
v -0.008730 0.003754 0.036165
v -0.010387 0.005956 0.000132
v 0.010401 0.025518 0.019037
v -0.010389 0.025490 0.019188
v 0.005840 0.016065 0.053804
v -0.010387 0.005956 0.000132
v -0.010401 0.026428 0.000167
v 0.010360 0.026508 0.000155
v 0.008616 0.015819 0.051328
v 0.010495 0.016778 0.018436
v 0.010401 0.025518 0.019037
v 0.010495 0.016778 0.018436
v 0.008693 0.003660 0.050166
v 0.010449 0.005998 0.000147
v 0.008616 0.015819 0.051328
v 0.008693 0.003660 0.050166
v 0.010495 0.016778 0.018436
v -0.008623 0.003725 0.050953
v -0.010387 0.005956 0.000132
v -0.008730 0.003754 0.036165
v 0.010449 0.005998 0.000147
v 0.008693 0.003660 0.050166
v -0.008730 0.003754 0.036165
v 0.008693 0.003660 0.050166
v -0.005481 0.003695 0.053725
v -0.008730 0.003754 0.036165
v 0.010401 0.025518 0.019037
v 0.010495 0.016778 0.018436
v 0.010449 0.005998 0.000147
v 0.010401 0.025518 0.019037
v 0.010449 0.005998 0.000147
v 0.010360 0.026508 0.000155
v 0.010401 0.025518 0.019037
v 0.010360 0.026508 0.000155
v -0.010389 0.025490 0.019188
v -0.010389 0.025490 0.019188
v -0.005278 0.016081 0.053849
v 0.005840 0.016065 0.053804
v -0.007778 0.016016 0.052366
v -0.005278 0.016081 0.053849
v -0.010389 0.025490 0.019188
v -0.008623 0.003725 0.050953
v -0.005481 0.003695 0.053725
v -0.007778 0.016016 0.052366
v -0.010387 0.005956 0.000132
v -0.008623 0.003725 0.050953
v -0.010479 0.017638 0.018988
v 0.010401 0.025518 0.019037
v 0.005840 0.016065 0.053804
v 0.008616 0.015819 0.051328
v 0.010360 0.026508 0.000155
v -0.010401 0.026428 0.000167
v -0.010389 0.025490 0.019188
v -0.010479 0.017638 0.018988
v -0.008841 0.015758 0.050589
v -0.010389 0.025490 0.019188
v -0.008841 0.015758 0.050589
v -0.007778 0.016016 0.052366
v -0.010389 0.025490 0.019188
v 0.005840 0.016065 0.053804
v -0.005481 0.003695 0.053725
v 0.006138 0.003756 0.053578
v -0.005278 0.016081 0.053849
v -0.005481 0.003695 0.053725
v 0.005840 0.016065 0.053804
v 0.008693 0.003660 0.050166
v 0.006138 0.003756 0.053578
v -0.005481 0.003695 0.053725
v 0.006138 0.003756 0.053578
v 0.008693 0.003660 0.050166
v 0.008616 0.015819 0.051328
v -0.005481 0.003695 0.053725
v -0.008623 0.003725 0.050953
v -0.008730 0.003754 0.036165
v -0.007778 0.016016 0.052366
v -0.005481 0.003695 0.053725
v -0.005278 0.016081 0.053849
v -0.008623 0.003725 0.050953
v -0.008841 0.015758 0.050589
v -0.010479 0.017638 0.018988
v 0.006138 0.003756 0.053578
v 0.008616 0.015819 0.051328
v 0.005840 0.016065 0.053804
v -0.007778 0.016016 0.052366
v -0.008841 0.015758 0.050589
v -0.008623 0.003725 0.050953
vn 0.0007 0.0004 -1.0000
vn -1.0000 -0.0007 -0.0045
vn -0.9999 0.0115 0.0012
vn 0.0021 -0.9981 -0.0611
vn 0.0006 0.9649 0.2625
vn -0.0006 0.0017 -1.0000
vn 0.9983 0.0068 0.0572
vn 0.9977 -0.0590 0.0323
vn 0.9984 0.0008 0.0570
vn -0.8368 -0.5474 0.0050
vn 0.0312 -0.9985 -0.0456
vn -0.0032 -1.0000 -0.0027
vn 0.9999 0.0114 -0.0093
vn 1.0000 0.0043 -0.0019
vn -0.0010 0.9986 0.0524
vn 0.0025 0.9652 0.2616
vn -0.1923 0.9395 0.2834
vn -0.6613 -0.0407 0.7490
vn -0.9977 -0.0596 0.0320
vn 0.3362 0.8967 0.2879
vn -0.0039 0.9988 0.0492
vn -0.9986 0.0102 0.0524
vn -0.6166 0.7429 0.2606
vn 0.0128 -0.0180 0.9998
vn 0.0041 -0.0101 0.9999
vn 0.0056 -0.9995 0.0325
vn 0.7986 -0.0522 0.5996
vn -0.0077 -1.0000 -0.0019
vn -0.5101 -0.0003 0.8601
vn -0.9986 -0.0166 0.0508
vn 0.6657 0.0024 0.7463
vn -0.8582 -0.0001 0.5134
usemtl DefaultMaterial.001
s 1
f 1//1 2//1 3//1
f 4//2 5//2 6//2
f 7//3 8//3 9//3
f 10//4 11//4 12//4
f 13//5 14//5 15//5
f 16//6 17//6 18//6
f 19//7 20//7 21//7
f 22//8 23//8 24//8
f 25//9 26//9 27//9
f 28//10 29//10 30//10
f 31//11 32//11 33//11
f 34//12 35//12 36//12
f 37//13 38//13 39//13
f 40//14 41//14 42//14
f 43//15 44//15 45//15
f 46//16 47//16 48//16
f 49//17 50//17 51//17
f 52//18 53//18 54//18
f 55//19 56//19 57//19
f 58//20 59//20 60//20
f 61//21 62//21 63//21
f 64//22 65//22 66//22
f 67//23 68//23 69//23
f 70//24 71//24 72//24
f 73//25 74//25 75//25
f 76//26 77//26 78//26
f 79//27 80//27 81//27
f 82//28 83//28 84//28
f 85//29 86//29 87//29
f 88//30 89//30 90//30
f 91//31 92//31 93//31
f 94//32 95//32 96//32
o 立方体
v 0.008375 0.009238 0.095061
v 0.008375 0.004086 0.095061
v 0.008375 0.009238 0.053440
v 0.008375 0.004086 0.053440
v -0.008746 0.009238 0.095061
v -0.008746 0.004086 0.095061
v -0.008746 0.009238 0.053440
v -0.008746 0.004086 0.053440
vt 0.375000 0.000000
vt 0.625000 0.000000
vt 0.625000 0.250000
vt 0.375000 0.250000
vt 0.625000 0.500000
vt 0.375000 0.500000
vt 0.625000 0.750000
vt 0.375000 0.750000
vt 0.625000 1.000000
vt 0.375000 1.000000
vt 0.125000 0.500000
vt 0.125000 0.750000
vt 0.875000 0.500000
vt 0.875000 0.750000
vn 0.5773 0.5773 0.5773
vn 0.5773 -0.5773 0.5773
vn 0.5773 -0.5773 -0.5773
vn 0.5773 0.5773 -0.5773
vn -0.5773 -0.5773 -0.5773
vn -0.5773 0.5773 -0.5773
vn -0.5773 -0.5773 0.5773
vn -0.5773 0.5773 0.5773
usemtl None
s 1
f 97/1/33 98/2/34 100/3/35 99/4/36
f 99/4/36 100/3/35 104/5/37 103/6/38
f 103/6/38 104/5/37 102/7/39 101/8/40
f 101/8/40 102/7/39 98/9/34 97/10/33
f 99/11/36 103/6/38 101/8/40 97/12/33
f 104/5/37 100/13/35 98/14/34 102/7/39
